<svg width="11" height="19" viewBox="0 0 11 19" fill="none" xmlns="http://www.w3.org/2000/svg">
<path d="M10.4724 0.367234C10.3563 0.250826 10.2184 0.158469 10.0665 0.095453C9.91467 0.0324369 9.75186 0 9.58744 0C9.42303 0 9.26022 0.0324369 9.10836 0.095453C8.9565 0.158469 8.81856 0.250826 8.70244 0.367234L0.292444 8.77723C0.19974 8.86975 0.126193 8.97964 0.0760112 9.10061C0.0258297 9.22158 0 9.35127 0 9.48223C0 9.6132 0.0258297 9.74288 0.0760112 9.86386C0.126193 9.98483 0.19974 10.0947 0.292444 10.1872L8.70244 18.5972C9.19244 19.0872 9.98244 19.0872 10.4724 18.5972C10.9624 18.1072 10.9624 17.3172 10.4724 16.8272L3.13244 9.48723L10.4824 2.13723C10.9624 1.64723 10.9624 0.857234 10.4724 0.367234Z" fill="#A5A5A5"/>
</svg>
