<svg width="22" height="19" viewBox="0 0 22 19" fill="none" xmlns="http://www.w3.org/2000/svg">
<path d="M10.75 2.96581L10.21 3.48581C10.28 3.55839 10.3638 3.61613 10.4566 3.65557C10.5494 3.695 10.6492 3.71533 10.75 3.71533C10.8508 3.71533 10.9506 3.695 11.0434 3.65557C11.1362 3.61613 11.22 3.55839 11.29 3.48581L10.75 2.96581ZM5.751 13.8858C5.59717 13.7593 5.39939 13.6991 5.20117 13.7184C5.00294 13.7377 4.82051 13.835 4.694 13.9888C4.56749 14.1426 4.50727 14.3404 4.52659 14.5386C4.5459 14.7369 4.64317 14.9193 4.797 15.0458L5.751 13.8858ZM1.092 10.8768C1.13928 10.9632 1.20311 11.0395 1.27985 11.1012C1.3566 11.1629 1.44475 11.209 1.53928 11.2366C1.63381 11.2643 1.73287 11.2731 1.83079 11.2625C1.92871 11.2519 2.02359 11.2221 2.11 11.1748C2.19641 11.1275 2.27266 11.0637 2.3344 10.987C2.39614 10.9102 2.44216 10.8221 2.46983 10.7275C2.49751 10.633 2.50629 10.5339 2.49568 10.436C2.48507 10.3381 2.45528 10.2432 2.408 10.1568L1.092 10.8768ZM1.5 6.60281C1.5 4.45281 2.715 2.64881 4.374 1.88981C5.986 1.15281 8.152 1.34781 10.21 3.48581L11.29 2.44681C8.85 -0.0901935 6.014 -0.509194 3.75 0.525806C1.536 1.53881 0 3.89081 0 6.60281H1.5ZM7.247 16.9658C7.76 17.3698 8.31 17.7998 8.867 18.1258C9.424 18.4508 10.06 18.7158 10.75 18.7158V17.2158C10.44 17.2158 10.076 17.0958 9.624 16.8308C9.171 16.5668 8.702 16.2028 8.176 15.7878L7.247 16.9658ZM14.253 16.9658C15.679 15.8408 17.503 14.5528 18.933 12.9418C20.39 11.3018 21.5 9.26881 21.5 6.60281H20C20 8.79981 19.1 10.4938 17.812 11.9458C16.497 13.4258 14.84 14.5928 13.324 15.7878L14.253 16.9658ZM21.5 6.60281C21.5 3.89081 19.965 1.53881 17.75 0.525806C15.486 -0.509194 12.652 -0.0901935 10.21 2.44581L11.29 3.48581C13.348 1.34881 15.514 1.15281 17.126 1.88981C18.785 2.64881 20 4.45181 20 6.60281H21.5ZM13.324 15.7878C12.798 16.2028 12.329 16.5668 11.876 16.8308C11.424 17.0948 11.06 17.2158 10.75 17.2158V18.7158C11.44 18.7158 12.076 18.4508 12.633 18.1258C13.191 17.7998 13.74 17.3698 14.253 16.9658L13.324 15.7878ZM8.176 15.7878C7.38 15.1608 6.571 14.5608 5.751 13.8858L4.797 15.0458C5.627 15.7288 6.505 16.3808 7.247 16.9658L8.177 15.7878H8.176ZM2.408 10.1578C1.80561 9.07023 1.49293 7.84605 1.5 6.60281H0C0 8.24081 0.42 9.64881 1.092 10.8768L2.408 10.1568V10.1578Z" fill="white"/>
</svg>
