<svg width="8" height="11" viewBox="0 0 8 11" fill="none" xmlns="http://www.w3.org/2000/svg">
<path d="M2.375 6C2.06311 6 1.75428 6.06143 1.46613 6.18079C1.17798 6.30014 0.91616 6.47508 0.695621 6.69562C0.475082 6.91616 0.300141 7.17798 0.180786 7.46613C0.0614312 7.75427 0 8.06311 0 8.375C0 8.68689 0.0614312 8.99573 0.180786 9.28387C0.300141 9.57202 0.475082 9.83384 0.695621 10.0544C0.91616 10.2749 1.17798 10.4499 1.46613 10.5692C1.75428 10.6886 2.06311 10.75 2.375 10.75C3.00489 10.75 3.60898 10.4998 4.05438 10.0544C4.49978 9.60898 4.75 9.00489 4.75 8.375C4.75 7.74511 4.49978 7.14102 4.05438 6.69562C3.60898 6.25022 3.00489 6 2.375 6Z" fill="#BCBCBC"/>
<path fill-rule="evenodd" clip-rule="evenodd" d="M4.375 0C4.47446 0 4.56984 0.0395088 4.64016 0.109835C4.71049 0.180161 4.75 0.275544 4.75 0.375C4.75 1.825 5.925 3 7.375 3C7.47446 3 7.56984 3.03951 7.64017 3.10983C7.71049 3.18016 7.75 3.27554 7.75 3.375C7.75 3.47446 7.71049 3.56984 7.64017 3.64016C7.56984 3.71049 7.47446 3.75 7.375 3.75C6.47989 3.75 5.62145 3.39442 4.98851 2.76149C4.35558 2.12855 4 1.27011 4 0.375C4 0.275544 4.03951 0.180161 4.10984 0.109835C4.18016 0.0395088 4.27554 0 4.375 0Z" fill="#BCBCBC"/>
<path opacity="0.5" d="M4 6.643V0.375C4 1.1785 4.281 1.917 4.75 2.4965V8.375C4.75038 8.05031 4.684 7.72902 4.55498 7.43107C4.42596 7.13311 4.23705 6.86487 4 6.643Z" fill="#BCBCBC"/>
</svg>
