<svg width="18" height="18" viewBox="0 0 18 18" fill="none" xmlns="http://www.w3.org/2000/svg">
<path d="M13.659 3.00035C13.519 2.20235 13.289 1.68535 12.867 1.37235C12.7027 1.25013 12.5214 1.15244 12.329 1.08235C11.337 0.725354 10.157 1.54735 7.795 3.19235L7.592 3.33235C7.195 3.60935 6.997 3.74735 6.783 3.84735C6.57303 3.94565 6.35117 4.01624 6.123 4.05735C5.892 4.09735 5.654 4.09735 5.179 4.09735C3.903 4.09735 3.265 4.09735 2.709 4.36935C2.2 4.61835 1.692 5.12335 1.426 5.64435C1.135 6.21435 1.101 6.80635 1.032 7.99235C1.012 8.34235 1 8.68435 1 9.00035C1 9.31635 1.012 9.65836 1.032 10.0084C1.101 11.1944 1.135 11.7864 1.426 12.3564C1.692 12.8774 2.2 13.3824 2.708 13.6314C3.265 13.9034 3.903 13.9034 5.178 13.9034C5.654 13.9034 5.892 13.9034 6.122 13.9434C6.35 13.9844 6.572 14.0554 6.783 14.1534C6.997 14.2534 7.195 14.3914 7.593 14.6674L7.796 14.8094C10.156 16.4534 11.338 17.2754 12.329 16.9184C12.519 16.8494 12.703 16.7504 12.867 16.6284C13.289 16.3154 13.519 15.7984 13.659 15.0004M17 6.00035L11 12.0004M11 6.00035L17 12.0004" stroke="#A5A5A5" stroke-width="1.5" stroke-linecap="round"/>
</svg>
