<svg width="20" height="20" viewBox="0 0 20 20" fill="none" xmlns="http://www.w3.org/2000/svg">
<path d="M0 4C0 2.114 -5.96046e-08 1.172 0.586 0.586C1.172 -5.96046e-08 2.114 0 4 0C5.886 0 6.828 -5.96046e-08 7.414 0.586C8 1.172 8 2.114 8 4V16C8 17.886 8 18.828 7.414 19.414C6.828 20 5.886 20 4 20C2.114 20 1.172 20 0.586 19.414C-5.96046e-08 18.828 0 17.886 0 16V4Z" fill="white"/>
<path opacity="0.5" d="M12 4C12 2.114 12 1.172 12.586 0.586C13.172 -5.96046e-08 14.114 0 16 0C17.886 0 18.828 -5.96046e-08 19.414 0.586C20 1.172 20 2.114 20 4V16C20 17.886 20 18.828 19.414 19.414C18.828 20 17.886 20 16 20C14.114 20 13.172 20 12.586 19.414C12 18.828 12 17.886 12 16V4Z" fill="white"/>
</svg>
