<svg width="21" height="20" viewBox="0 0 21 20" fill="none" xmlns="http://www.w3.org/2000/svg">
<path fill-rule="evenodd" clip-rule="evenodd" d="M8.20165 0.20685C8.0694 0.0707119 7.89447 -0.00340281 7.71373 0.000120073C7.53298 0.00364295 7.36053 0.0845284 7.2327 0.225736C7.10488 0.366943 7.03166 0.557447 7.02847 0.757114C7.02528 0.95678 7.09237 1.15002 7.21561 1.29612L7.88537 2.036H7.70863C5.79661 2.036 3.96289 2.87506 2.61088 4.3686C1.25888 5.86214 0.499329 7.88782 0.499329 10C0.499329 12.1122 1.25888 14.1379 2.61088 15.6314C3.96289 17.1249 5.79661 17.964 7.70863 17.964H8.17375C8.35878 17.964 8.53624 17.8828 8.66708 17.7383C8.79792 17.5937 8.87142 17.3977 8.87142 17.1933C8.87142 16.9889 8.79792 16.7929 8.66708 16.6483C8.53624 16.5038 8.35878 16.4226 8.17375 16.4226H7.70863C6.16667 16.4226 4.68787 15.7459 3.59754 14.5415C2.50722 13.337 1.89468 11.7034 1.89468 10C1.89468 8.29663 2.50722 6.66302 3.59754 5.45855C4.68787 4.25408 6.16667 3.57742 7.70863 3.57742H9.5691C9.70699 3.57729 9.84176 3.53201 9.95638 3.44732C10.071 3.36262 10.1603 3.2423 10.2131 3.10156C10.2658 2.96081 10.2797 2.80595 10.2528 2.65654C10.2259 2.50713 10.1596 2.36986 10.0621 2.26208L8.20165 0.20685Z" fill="#838383"/>
<path opacity="0.5" d="M12.8249 2.03601C12.6399 2.03601 12.4624 2.11721 12.3316 2.26175C12.2008 2.40628 12.1272 2.60232 12.1272 2.80672C12.1272 3.01113 12.2008 3.20716 12.3316 3.35169C12.4624 3.49623 12.6399 3.57743 12.8249 3.57743H13.29C14.832 3.57743 16.3108 4.25409 17.4011 5.45856C18.4915 6.66303 19.104 8.29664 19.104 10C19.104 11.7034 18.4915 13.337 17.4011 14.5415C16.3108 15.7459 14.832 16.4226 13.29 16.4226H11.4296C11.2917 16.4227 11.1569 16.468 11.0423 16.5527C10.9277 16.6374 10.8383 16.7577 10.7856 16.8985C10.7328 17.0392 10.719 17.1941 10.7459 17.3435C10.7728 17.4929 10.8391 17.6302 10.9366 17.7379L12.797 19.7932C12.9293 19.9293 13.1042 20.0034 13.2849 19.9999C13.4657 19.9964 13.6381 19.9155 13.766 19.7743C13.8938 19.6331 13.967 19.4426 13.9702 19.2429C13.9734 19.0432 13.9063 18.85 13.7831 18.7039L13.1133 17.964H13.29C15.2021 17.964 17.0358 17.1249 18.3878 15.6314C19.7398 14.1379 20.4993 12.1122 20.4993 10C20.4993 7.88783 19.7398 5.86215 18.3878 4.36861C17.0358 2.87507 15.2021 2.03601 13.29 2.03601H12.8249Z" fill="#838383"/>
</svg>
