<svg width="20" height="20" viewBox="0 0 20 20" fill="none" xmlns="http://www.w3.org/2000/svg">
<path d="M10 12.5C11.3807 12.5 12.5 11.3807 12.5 10C12.5 8.61929 11.3807 7.5 10 7.5C8.61929 7.5 7.5 8.61929 7.5 10C7.5 11.3807 8.61929 12.5 10 12.5Z" stroke="#A5A5A5" stroke-width="1.5"/>
<path d="M3.05083 8.86666C3.44499 9.11332 3.69833 9.53499 3.69833 9.99999C3.69833 10.465 3.44499 10.8867 3.05083 11.1333C2.78333 11.3025 2.60999 11.4367 2.48749 11.5967C2.35424 11.7704 2.25651 11.9686 2.19988 12.1801C2.14326 12.3916 2.12886 12.6121 2.15749 12.8292C2.20083 13.1575 2.39499 13.4942 2.78249 14.1667C3.17166 14.8392 3.36583 15.175 3.62833 15.3775C3.80202 15.5107 4.00027 15.6085 4.21175 15.6651C4.42322 15.7217 4.64378 15.7361 4.86083 15.7075C5.06083 15.6808 5.26333 15.5992 5.54333 15.4508C5.74371 15.3412 5.96868 15.2842 6.19711 15.2854C6.42553 15.2866 6.64991 15.3458 6.84916 15.4575C7.25166 15.6908 7.49083 16.12 7.50749 16.585C7.51916 16.9017 7.54916 17.1183 7.62666 17.3042C7.71042 17.5065 7.83324 17.6904 7.9881 17.8452C8.14295 18.0001 8.32681 18.1229 8.52916 18.2067C8.83499 18.3333 9.22333 18.3333 9.99999 18.3333C10.7767 18.3333 11.165 18.3333 11.4708 18.2067C11.6732 18.1229 11.857 18.0001 12.0119 17.8452C12.1667 17.6904 12.2896 17.5065 12.3733 17.3042C12.45 17.1183 12.4808 16.9017 12.4925 16.585C12.5092 16.12 12.7483 15.69 13.1508 15.4575C13.3501 15.3458 13.5745 15.2866 13.8029 15.2854C14.0313 15.2842 14.2563 15.3412 14.4567 15.4508C14.7367 15.5992 14.94 15.6808 15.14 15.7075C15.5781 15.7651 16.0211 15.6464 16.3717 15.3775C16.6342 15.1758 16.8283 14.8392 17.2167 14.1667C17.39 13.8667 17.5242 13.6342 17.6242 13.4392M16.9492 11.1342C16.7541 11.0156 16.5923 10.8494 16.479 10.6511C16.3658 10.4529 16.3047 10.2291 16.3017 10.0008C16.3017 9.53499 16.555 9.11332 16.9492 8.86582C17.2167 8.69749 17.3892 8.56332 17.5125 8.40332C17.6458 8.22963 17.7435 8.03138 17.8001 7.8199C17.8567 7.60843 17.8711 7.38787 17.8425 7.17082C17.7992 6.84249 17.605 6.50582 17.2175 5.83332C16.8283 5.16082 16.6342 4.82499 16.3717 4.62249C16.198 4.48923 15.9997 4.3915 15.7882 4.33488C15.5768 4.27826 15.3562 4.26385 15.1392 4.29249C14.9392 4.31916 14.7367 4.40082 14.4558 4.54916C14.2555 4.65867 14.0307 4.71551 13.8025 4.71434C13.5742 4.71318 13.35 4.65404 13.1508 4.54249C12.9545 4.42574 12.7911 4.26102 12.676 4.0638C12.5608 3.86657 12.4977 3.64331 12.4925 3.41499C12.4808 3.09832 12.4508 2.88166 12.3733 2.69582C12.2896 2.49347 12.1667 2.30962 12.0119 2.15476C11.857 1.9999 11.6732 1.87708 11.4708 1.79332C11.165 1.66666 10.7767 1.66666 9.99999 1.66666C9.22333 1.66666 8.83499 1.66666 8.52916 1.79332C8.32681 1.87708 8.14295 1.9999 7.9881 2.15476C7.83324 2.30962 7.71042 2.49347 7.62666 2.69582C7.54999 2.88166 7.51916 3.09832 7.50749 3.41499C7.5023 3.64331 7.43916 3.86657 7.324 4.0638C7.20885 4.26102 7.04545 4.42574 6.84916 4.54249C6.64991 4.65419 6.42553 4.71341 6.19711 4.71457C5.96868 4.71574 5.74371 4.65882 5.54333 4.54916C5.26333 4.40082 5.05999 4.31916 4.85999 4.29249C4.42193 4.23488 3.97891 4.35358 3.62833 4.62249C3.36666 4.82499 3.17166 5.16082 2.78333 5.83332C2.60999 6.13332 2.47583 6.36582 2.37583 6.56082" stroke="#A5A5A5" stroke-width="1.5" stroke-linecap="round"/>
</svg>
