<svg width="20" height="23" viewBox="0 0 20 23" fill="none" xmlns="http://www.w3.org/2000/svg">
<path d="M10 20.2619C10 20.8424 10.1 21.39 10.2889 21.9048H2.22222C0.988889 21.9048 0 20.93 0 19.7143V2.19048C0 1.60953 0.234126 1.05237 0.650874 0.641575C1.06762 0.230782 1.63285 0 2.22222 0H3.33333V7.66667L6.11111 6.02381L8.88889 7.66667V0H15.5556C16.1449 0 16.7102 0.230782 17.1269 0.641575C17.5437 1.05237 17.7778 1.60953 17.7778 2.19048V9.85714H13.8889V15.4538C11.6667 15.9576 10 17.9181 10 20.2619ZM17.7778 12.0476H16.1111V17.7538C15.7326 17.5904 15.3219 17.5123 14.9088 17.5252C14.4958 17.5381 14.0909 17.6416 13.7237 17.8283C13.3564 18.015 13.036 18.2801 12.7858 18.6043C12.5357 18.9285 12.362 19.3036 12.2776 19.7023C12.1931 20.1011 12.2 20.5133 12.2977 20.9091C12.3953 21.3049 12.5814 21.6742 12.8422 21.9901C13.103 22.3061 13.4321 22.5607 13.8054 22.7354C14.1786 22.9101 14.5868 23.0005 15 23C15.7367 23 16.4433 22.7115 16.9642 22.198C17.4851 21.6845 17.7778 20.9881 17.7778 20.2619V14.2381H20V12.0476H17.7778Z" fill="#838383"/>
</svg>
