<svg width="22" height="16" viewBox="0 0 22 16" fill="none" xmlns="http://www.w3.org/2000/svg">
<path d="M0.75 12.0187C0.551088 12.0187 0.360322 12.0977 0.21967 12.2384C0.0790177 12.379 0 12.5698 0 12.7687C0 12.9676 0.0790177 13.1584 0.21967 13.299C0.360322 13.4397 0.551088 13.5187 0.75 13.5187V12.0187ZM20.75 2.76871L21.28 3.29871C21.4205 3.15808 21.4993 2.96746 21.4993 2.76871C21.4993 2.56996 21.4205 2.37933 21.28 2.23871L20.75 2.76871ZM18.22 4.23871C18.0875 4.38088 18.0154 4.56893 18.0188 4.76323C18.0223 4.95753 18.101 5.14292 18.2384 5.28033C18.3758 5.41774 18.5612 5.49646 18.7555 5.49988C18.9498 5.50331 19.1378 5.43119 19.28 5.29871L18.22 4.23871ZM19.28 0.238708C19.2113 0.165021 19.1285 0.105919 19.0365 0.064927C18.9445 0.023935 18.8452 0.00189351 18.7445 0.000116722C18.6438 -0.00166006 18.5438 0.0168643 18.4504 0.0545854C18.357 0.0923064 18.2722 0.148451 18.201 0.21967C18.1297 0.290888 18.0736 0.375722 18.0359 0.46911C17.9982 0.562499 17.9796 0.662528 17.9814 0.763231C17.9832 0.863934 18.0052 0.963247 18.0462 1.05525C18.0872 1.14725 18.1463 1.23005 18.22 1.29871L19.28 0.238708ZM13.97 3.15871L13.601 2.50571L13.971 3.15771L13.97 3.15871ZM0.75 13.5187H4.353V12.0187H0.75V13.5187ZM10.14 10.2417L12.645 6.06771L11.359 5.29571L8.855 9.46971L10.14 10.2417ZM17.147 3.51871H20.75V2.01871H17.147V3.51871ZM20.22 2.23871L18.22 4.23871L19.28 5.29871L21.28 3.29871L20.22 2.23871ZM21.28 2.23871L19.28 0.238708L18.22 1.29871L20.22 3.29871L21.28 2.23871ZM12.645 6.06771C13.079 5.34371 13.379 4.84771 13.651 4.47871C13.914 4.12371 14.119 3.93571 14.34 3.81071L13.601 2.50571C13.134 2.76971 12.781 3.13271 12.446 3.58571C12.12 4.02571 11.778 4.59671 11.359 5.29571L12.645 6.06771ZM17.147 2.01871C16.332 2.01871 15.667 2.01871 15.122 2.07071C14.56 2.12571 14.068 2.24071 13.601 2.50571L14.34 3.81071C14.56 3.68571 14.827 3.60671 15.267 3.56371C15.723 3.51971 16.303 3.51871 17.147 3.51871V2.01871ZM4.353 13.5187C5.168 13.5187 5.833 13.5187 6.378 13.4667C6.94 13.4117 7.432 13.2967 7.899 13.0317L7.16 11.7267C6.94 11.8517 6.673 11.9307 6.233 11.9737C5.777 12.0177 5.197 12.0187 4.353 12.0187V13.5187ZM8.855 9.46971C8.42 10.1937 8.121 10.6897 7.849 11.0587C7.586 11.4137 7.381 11.6017 7.16 11.7267L7.899 13.0317C8.365 12.7677 8.719 12.4047 9.054 11.9517C9.38 11.5117 9.721 10.9407 10.14 10.2417L8.855 9.46971Z" fill="#838383"/>
<path opacity="0.5" d="M0.75 3.51868C0.551088 3.51868 0.360322 3.43966 0.21967 3.29901C0.0790177 3.15835 0 2.96759 0 2.76868C0 2.56976 0.0790177 2.379 0.21967 2.23835C0.360322 2.09769 0.551088 2.01868 0.75 2.01868V3.51868ZM20.75 12.7687L21.28 12.2387C21.4205 12.3793 21.4993 12.5699 21.4993 12.7687C21.4993 12.9674 21.4205 13.1581 21.28 13.2987L20.75 12.7687ZM18.22 11.2987C18.1463 11.23 18.0872 11.1472 18.0462 11.0552C18.0052 10.9632 17.9832 10.8639 17.9814 10.7632C17.9796 10.6625 17.9982 10.5625 18.0359 10.4691C18.0736 10.3757 18.1297 10.2909 18.201 10.2196C18.2722 10.1484 18.357 10.0923 18.4504 10.0546C18.5438 10.0168 18.6438 9.99831 18.7445 10.0001C18.8452 10.0019 18.9445 10.0239 19.0365 10.0649C19.1285 10.1059 19.2113 10.165 19.28 10.2387L18.22 11.2987ZM19.28 15.2987C19.2113 15.3724 19.1285 15.4315 19.0365 15.4725C18.9445 15.5134 18.8452 15.5355 18.7445 15.5373C18.6438 15.539 18.5438 15.5205 18.4504 15.4828C18.357 15.4451 18.2722 15.3889 18.201 15.3177C18.1297 15.2465 18.0736 15.1617 18.0359 15.0683C17.9982 14.9749 17.9796 14.8749 17.9814 14.7742C17.9832 14.6735 18.0052 14.5741 18.0462 14.4821C18.0872 14.3901 18.1463 14.3073 18.22 14.2387L19.28 15.2987ZM13.97 12.3787L13.601 13.0317L13.971 12.3797L13.97 12.3787ZM0.75 2.01868H4.353V3.51868H0.75V2.01868ZM10.14 5.29568L12.645 9.46968L11.359 10.2417L8.855 6.06768L10.14 5.29568ZM17.147 12.0187H20.75V13.5187H17.147V12.0187ZM20.22 13.2987L18.22 11.2987L19.28 10.2387L21.28 12.2387L20.22 13.2987ZM21.28 13.2987L19.28 15.2987L18.22 14.2387L20.22 12.2387L21.28 13.2987ZM12.645 9.46968C13.079 10.1937 13.379 10.6897 13.651 11.0587C13.914 11.4137 14.119 11.6017 14.34 11.7267L13.601 13.0317C13.134 12.7677 12.781 12.4047 12.446 11.9517C12.12 11.5117 11.778 10.9407 11.359 10.2417L12.645 9.46968ZM17.147 13.5187C16.332 13.5187 15.667 13.5187 15.122 13.4667C14.56 13.4117 14.068 13.2967 13.601 13.0317L14.34 11.7267C14.56 11.8517 14.827 11.9307 15.267 11.9737C15.723 12.0177 16.303 12.0187 17.147 12.0187V13.5187ZM4.353 2.01868C5.168 2.01868 5.833 2.01868 6.378 2.07068C6.94 2.12568 7.432 2.24068 7.899 2.50568L7.16 3.81068C6.94 3.68568 6.673 3.60668 6.233 3.56368C5.777 3.51968 5.197 3.51868 4.353 3.51868V2.01868ZM8.855 6.06768C8.42 5.34368 8.121 4.84768 7.849 4.47868C7.586 4.12368 7.381 3.93568 7.16 3.81068L7.899 2.50568C8.365 2.76968 8.719 3.13268 9.054 3.58568C9.38 4.02568 9.721 4.59668 10.14 5.29568L8.855 6.06768Z" fill="#838383"/>
</svg>
